<svg xmlns="http://www.w3.org/2000/svg" viewBox="0 0 32 32">
  <rect width="32" height="32" fill="#fafafa"/>
  <g fill="#262626">
    <rect x="4" y="4" width="3" height="3"/><rect x="10" y="4" width="3" height="3"/><rect x="16" y="4" width="3" height="3"/><rect x="22" y="4" width="3" height="3"/>
    <rect x="7" y="9" width="3" height="3"/><rect x="13" y="9" width="3" height="3"/><rect x="19" y="9" width="3" height="3"/><rect x="25" y="9" width="3" height="3"/>
    <rect x="4" y="14" width="3" height="3"/><rect x="16" y="14" width="3" height="3"/><rect x="22" y="14" width="3" height="3"/>
    <rect x="7" y="19" width="3" height="3"/><rect x="13" y="19" width="3" height="3"/><rect x="25" y="19" width="3" height="3"/>
    <rect x="4" y="24" width="3" height="3"/><rect x="10" y="24" width="3" height="3"/><rect x="16" y="24" width="3" height="3"/>
  </g>
  <rect x="22" y="24" width="6" height="6" fill="#386bd4"/>
</svg>
