<svg xmlns="http://www.w3.org/2000/svg" viewBox="1.5 87.6 99 94">
<!-- SVG created with Arrow, by QuiverAI (https://quiver.ai) -->
  <path d="m18.7 133.9-3.1-2.9c-2.6-2.4-6.6-1.9-8.3 0.7-0.9 1.4-1 3-0.4 4.6 1.2 3 5.1 4.3 8.1 2.2l3.4-3.3c0.4-0.3 0.5-0.7 0.3-1" fill="#BE0D60"/>
  <path d="m54.4 92c-2-2-5.4-2-7.2 0s-1.8 4.9 0 6.8l3.1 3.1c0.4 0.4 0.7 0.5 1.1 0.1l3-3c2.2-2.2 2-5.2 0-7z" fill="#01A6DD"/>
  <path d="m46.9 170c-2.1 2.1-1.8 5.4 0.3 7.2 1.4 1.2 4.7 1.4 6.7-0.1 2.2-1.6 3.1-5.1 0.7-7.4l-2.9-2.8c-0.3-0.5-0.6-0.4-1 0l-3.8 3.1z" fill="#EEB724"/>
  <path d="m87.6 130.3c-0.9 0.4-1.4 0.9-4.2 3.7-0.4 0.4-0.4 0.8 0 1.2l3.2 3.1c2.2 1.8 5.6 1.9 7.6-0.5 1.5-1.9 1.5-4.7-0.2-6.6-1.6-1.5-4.2-1.9-6.1-0.9h-0.3z" fill="#00964F"/>
  <path d="m67.9 113.9-9.6-10.2c-0.3-0.8-1.1-1.3-1.1-0.8-0.3 0-5.1 5-6.1 6.1-0.4 0.5-0.9 0.4-1.1 0.1l-5.7-5.8c-0.5-0.6-0.9-0.6-1.4-0.1l-9.4 9.2c-0.4 0.3-0.3 0.9 0.1 1.2l2.2 2.2c0.4 0.4 0.8 0.5 1.3 0l6.1-6c0.4-0.4 0.8-0.3 1.1 0l5.9 5.8c0.3 0.4 0.8 0.4 1.2 0l6.1-5.8c0.3-0.3 0.7-0.2 1 0.1l5.9 5.7 0.2 0.2c0.3 0.5 0.8 0.2 1.2-0.2l2.3-2.3c0.2-0.2 0.2-0.7-0.2-0.9v1.5z" fill="#01A6DD"/>
  <path d="m44.3 116.7c-0.3-0.3-0.8-0.4-1.2 0l-2.5 2.5c-0.3 0.3-0.2 0.8 0.1 1l9.5 9.9c0.3 0.4 0.9 0.3 1.2 0l9.5-9.5c0.5-0.4 0.3-0.9-0.1-1.2l-2.4-2.5c-0.4-0.3-0.8-0.3-1 0l-6 6.2c-0.3 0.3-0.7 0.3-1 0l-6.1-6.4z" fill="#01A6DD"/>
  <path d="m68 155.5-2.6-2.6c-0.2-0.2-0.7-0.3-1 0.1l-6.1 6c-0.3 0.3-0.7 0.3-1 0l-5.9-6.1c-0.3-0.3-0.9-0.3-1.2 0.1l-5.8 6c-0.4 0.3-0.7 0.4-1.1 0l-6.3-6.1c-0.3-0.3-0.7-0.3-1 0l-2.5 2.6c-0.4 0.2-0.4 0.8 0.1 1.1l9.5 9.4c0.3 0.4 0.9 0.4 1.2 0l5.6-5.6c0.6-0.6 1-0.8 1.7-0.1l5.8 5.7c0.3 0.4 0.8 0.4 1.1 0l9.4-9.4c0.5-0.3 0.5-0.7 0.1-1.1z" fill="#EDB525"/>
  <path d="m50.4 138.6-9.7 9.4c-0.4 0.4-0.3 0.8 0.1 1.2l2.4 2.4c0.3 0.3 0.8 0.3 1 0l6-5.9c0.5-0.5 0.9-0.4 1.4 0.1l5.8 5.8c0.3 0.4 0.8 0.4 1.1 0l2.3-2.3c0.4-0.3 0.5-0.8 0-1.2l-9.4-9.5c-0.3-0.2-0.7-0.3-1 0z" fill="#EDB525"/>
  <path d="m76.8 134.7c-0.3-0.4-0.3-0.7 0.1-1.1l5.7-5.7c0.3-0.3 0.3-0.8 0-1l-9.6-10.1c-0.3-0.3-0.7-0.3-1 0l-2.6 2.6c-0.3 0.2-0.4 0.8 0 1.1l6.1 6.2c0.4 0.3 0.4 0.8 0.1 1.1l-6.3 6.1c-0.4 0.3-0.4 0.9 0 1.2l6.2 6.1c0.2 0.3 0.2 0.7 0 1l-6.2 5.7c-0.3 0.3-0.4 0.9 0 1.2l2.5 2.5c0.4 0.4 0.8 0.4 1.1 0.1l9.6-9.6c0.4-0.3 0.4-0.7 0-1.1l-5.7-6.3z" fill="#00964F"/>
  <path d="m62.1 134.6 5.8-5.9c0.5-0.5 0.5-0.9 0.1-1.2l-2.5-2.7c-0.3-0.3-0.8-0.3-1 0l-9.6 9.2c-1 0.7-0.3 1.2-0.1 1.5l9.3 9.1c0.7 0.6 1.1 0.3 1.4 0l2.4-2.4c0.4-0.3 0.4-0.9 0-1.2l-5.9-5.9c-0.3-0.3-0.1-0.7 0.1-0.9v0.4z" fill="#00964F"/>
  <path d="m26.2 142.2c-0.4-0.4-0.4-0.7 0-1.1l6.2-6.2c0.3-0.3 0.3-0.7 0-1l-6.1-6c-0.4-0.4-0.4-0.7-0.1-1.1l6.2-6.2c0.3-0.3 0.3-0.8-0.1-1.1l-2.4-2.6c-0.4-0.3-0.7-0.3-1 0l-10 10c-0.4 0.4-0.4 0.8-0.1 1.1l6.4 5.9c0.3 0.4 0.4 0.7 0 1.1l-6.3 6.2c-0.4 0.4-0.4 0.8 0 1.1l9.8 9.7c0.3 0.3 0.8 0.3 1.1 0l2.5-2.5c0.4-0.3 0.4-0.9 0-1.1l-6.1-6.2z" fill="#BD0C60"/>
  <path d="m35.4 143.4 0.8 0.8c0.4 0.4 0.9 0.4 1.3 0l9.2-9.2c0.5-0.5 0.5-0.8 0-1.3l-9.7-9.4c-0.3-0.3-0.8-0.3-1 0l-2.5 2.5c-0.3 0.3-0.3 0.8 0 1l5.9 5.8c0.5 0.4 0.5 1 0 1.4l-5.9 6c-0.4 0.3-0.3 0.8 0.1 1.2l1.8 1.7v-0.5z" fill="#BD0C60"/>
</svg>