<svg version="1.2" xmlns="http://www.w3.org/2000/svg" viewBox="0 0 1550 1548" width="1550" height="1548">
	<title>ROK_BIG-svg</title>
	<defs>
		<linearGradient id="g1" x2="1" gradientUnits="userSpaceOnUse" gradientTransform="matrix(812.908,-1407.992,1204.111,695.196,264.04,1419.581)">
			<stop offset=".28" stop-color="#cd163f"/>
			<stop offset=".9" stop-color="#f58025"/>
		</linearGradient>
	</defs>
	<style>
		.s0 { fill: url(#g1) } 
		.s1 { fill: #cd163f } 
	</style>
	<path id="Layer" class="s0" d="m441 479.5l619.9-458.7c9.1-6.5 4.3-20.8-6.5-20.8h-508.8c-58.4 0-115.4 23.3-156.5 64.9l-324.3 323.4c-41.5 41.5-64.8 98.2-64.8 157v457.4c0 58.8 23.3 115.5 64.8 157l323.8 323.4c41.6 41.6 98.6 64.9 157 64.9h440.1c12.5 0 16.4-16.4 4.7-22.1l-874.1-411.6c-36.3-17.3-60.1-54-60.1-94.3v-219.6c0-22.9 11.2-44.6 29.4-58l126.2-93.4v-169.9h229.2z"/>
	<path id="Layer" fill-rule="evenodd" class="s1" d="m1043.6 656.4l-59.7 162.6h117.2zm-503.2 6.5c0-51.9-35.9-59.3-73.1-59.3h-75.6v122.8h72.6c38.5-0.4 76.1-5.6 76.1-63.5z"/>
	<path id="Layer" class="s1" d="m1492.8 397.4l-301.3-301.4c-16.5-16.4-43.3-19-63.2-5.2l-579.7 390c109.8 6.9 176.4 51.1 176.4 152.7 0 88.6-48 143.5-128.8 153.5v1.3c37.6 7.3 62.6 24.6 80.8 48 6.9 8.2 11.2 17.7 13.4 27.6l45.8 138.8 197.2-493.3c7.3-17.3 23.7-28.6 42.3-28.6h173.4l230.4 576.4h-142.7c-28.5 0-55.7-18.6-67.8-45.8l-22.5-63.1h-209.2l-40.7 108.9h-312.5c-16.9 0-30.7-12.1-33.8-29.4l-51.8-150.9c-7-25.9-32.9-30.3-58.4-30.3h-50.6v210.2h-177.7v-349.8l-106.7 71.8c-9.6 6.4-15.2 17.7-15.2 29.4v222.2c0 14.7 8.7 27.3 21.6 32.9l1003.4 419.8c19.1 8.3 40.2 3.9 54.9-10.3l323-321.7c36.3-35.9 57-85.2 57-136.3v-481.6c0-51.1-20.7-99.9-57-135.8z"/>
</svg>